<?xml version="1.0" encoding="utf-8"?>
<!-- Generator: Adobe Illustrator 25.0.0, SVG Export Plug-In . SVG Version: 6.00 Build 0)  -->
<svg version="1.1" id="Camada_1" xmlns="http://www.w3.org/2000/svg" xmlns:xlink="http://www.w3.org/1999/xlink" x="0px" y="0px"
	 viewBox="0 0 82 89" style="enable-background:new 0 0 82 89;" xml:space="preserve">
<style type="text/css">
	.st0{fill:none;stroke:#FFFFFF;stroke-width:4;stroke-miterlimit:10;}
</style>
<path class="st0" d="M73.5,70.8c-0.2-8.9-1.1-10.9-1.6-12.2c-0.2-0.6-0.3-4.2-6.5-6.6c-4.5-1.8-10.6-1.5-15.1-4.5
	c-0.2-0.6-0.3-1.1-0.4-1.8c-0.1-1.1-0.2-2.1-0.2-3.2c0.7-1.3,1.5-2.9,2.3-4.8c0.6-1.5,1.1-2.9,1.5-4.3c0.1,0.1,0.3,0.1,0.4,0.2
	l0.4,0c0.5,0,0.9-0.4,1-1l0.4-5.6c0-0.4-0.3-0.9-0.8-0.9l0,0c0.5-5.9-0.7-8.6-0.7-8.6S52,11.6,45,10.2C43.9,10,42.9,9.9,42,9.9
	c0,0,0,0,0,0h0c-0.9,0-1.8,0.1-2.9,0.3c-7,1.4-9.2,7.1-9.2,7.1s-1.1,2.7-0.7,8.6l0,0c-0.5,0-0.9,0.5-0.8,0.9l0.4,5.6
	c0,0.6,0.5,1,1,1l0.4,0c0.2,0,0.3-0.1,0.4-0.2c0.4,1.3,0.9,2.8,1.5,4.3c0.8,1.9,1.6,3.5,2.3,4.8c-0.1,1.1-0.2,2.1-0.2,3.2
	c-0.1,0.6-0.2,1.2-0.4,1.8c-4.5,3-10.6,2.7-15.1,4.5c-6.2,2.4-6.3,6.1-6.5,6.6c-0.5,1.4-1.4,3.4-1.6,12.2c0,1.2,0,3,3.5,4.5
	c7.7,3,17.7,3.9,27.5,4.6c0,0,0.2,0,0.5,0s0.4,0,0.5,0c9.8-0.7,19.8-1.6,27.5-4.6C73.5,73.7,73.5,71.9,73.5,70.8z"/>
</svg>
