<svg class="sidebarIcon" width="67" height="74" viewBox="0 0 67 74" fill="none" xmlns="http://www.w3.org/2000/svg">
<path d="M64.9967 62.8878C64.7891 54.0061 63.884 52.0141 63.4189 50.6477C63.228 50.0962 63.0785 46.4085 56.9253 44.0214C52.3997 42.2681 46.3046 42.5644 41.7956 39.527C41.6129 38.9755 41.4967 38.3829 41.4385 37.7491C41.3389 36.679 41.2558 35.6089 41.1894 34.5388C41.9118 33.23 42.6758 31.6331 43.4647 29.6905C44.0709 28.2088 44.5525 26.793 44.9511 25.4349C45.0756 25.5254 45.2168 25.5748 45.3663 25.5913L45.7815 25.6324C46.2714 25.6736 46.7115 25.2785 46.7613 24.6364L47.2014 18.9979C47.2346 18.5781 46.8693 18.1089 46.3793 18.0595L46.3295 18.0513C46.7862 12.174 45.6486 9.45767 45.6486 9.45767C45.6486 9.45767 43.4896 3.7286 36.4562 2.32102C35.3601 2.09878 34.3802 2.02469 33.5166 2C33.5083 2 33.5 2 33.5 2H33.4834C32.6198 2.02469 31.6399 2.09878 30.5438 2.32102C23.5187 3.73683 21.3514 9.45767 21.3514 9.45767C21.3514 9.45767 20.2221 12.174 20.6705 18.0513L20.6207 18.0595C20.1307 18.1007 19.7653 18.5699 19.7986 18.9979L20.2387 24.6364C20.2885 25.2785 20.7203 25.6736 21.2185 25.6324L21.6337 25.5913C21.7915 25.5748 21.9327 25.5172 22.0489 25.4349C22.4392 26.7848 22.9291 28.2088 23.5353 29.6905C24.3242 31.6331 25.0881 33.23 25.8106 34.5388C25.7359 35.6089 25.6528 36.679 25.5615 37.7491C25.5033 38.3829 25.3871 38.9673 25.2044 39.527C20.6954 42.5644 14.6003 42.2681 10.0747 44.0214C3.91321 46.4085 3.76374 50.1044 3.58105 50.6477C3.10773 52.0141 2.21091 54.0143 2.00331 62.8878C1.9784 64.0649 2.00331 65.8429 5.54908 67.3904C13.2717 70.3866 23.2198 71.3333 33.0516 72C33.1014 72 33.3007 72 33.5083 72C33.7159 72 33.9235 72 33.965 72C43.7968 71.3333 53.7449 70.3866 61.4675 67.3904C64.9967 65.8429 65.0216 64.0649 64.9967 62.8878Z" stroke="white" stroke-width="4" stroke-miterlimit="10"/>
</svg>
