<svg width="82" height="89" viewBox="0 0 82 89" fill="none" xmlns="http://www.w3.org/2000/svg">
<path d="M61.891 32.5744C61.1928 32.5744 60.6342 31.98 60.6342 31.2369C60.6342 21.0872 52.8699 12.8247 43.3321 12.8247C35.9309 12.8247 29.3675 17.8921 27.0075 25.4116C26.7841 26.11 26.0719 26.4964 25.4155 26.2586C24.7592 26.0209 24.3961 25.263 24.6196 24.5645C27.3287 15.9305 34.8416 10.1349 43.3461 10.1349C54.2803 10.1349 63.1757 19.6011 63.1757 31.2369C63.1478 31.98 62.5892 32.5744 61.891 32.5744Z" fill="white"/>
<path d="M63.7483 49.4114C62.5474 49.4114 61.2207 49.1737 59.936 48.713C59.2796 48.4752 58.9166 47.7173 59.14 47.0189C59.3634 46.3056 60.0756 45.934 60.732 46.1718C61.7653 46.5433 62.8127 46.7365 63.7483 46.7365C69.1526 46.7365 73.5514 42.0554 73.5514 36.3044C73.5514 30.5979 69.1526 25.9466 63.7483 25.9466C62.7708 25.9466 62.0307 26.0506 61.4023 26.2735C60.7459 26.5113 60.0337 26.1249 59.8103 25.4265C59.5869 24.728 59.9499 23.9553 60.6063 23.7323C61.5 23.4203 62.5055 23.2717 63.7483 23.2717C70.5491 23.2717 76.079 29.1267 76.079 36.3044C76.0651 43.5266 70.5491 49.4114 63.7483 49.4114Z" fill="white"/>
<path d="M17.8049 49.4114C11.046 49.4114 5.55792 43.5266 5.55792 36.2895C5.55792 29.097 11.06 23.2568 17.8049 23.2568C21.1982 23.2568 24.3403 24.6686 26.6584 27.2246C27.1472 27.7596 27.1332 28.6066 26.6305 29.1267C26.1277 29.6469 25.3318 29.632 24.843 29.097C22.9997 27.0611 20.5 25.9466 17.8049 25.9466C12.4425 25.9466 8.07155 30.5979 8.07155 36.3044C8.07155 42.0554 12.4425 46.7365 17.8049 46.7365C18.8103 46.7365 19.8437 46.5433 20.7933 46.1867C21.4496 45.934 22.1758 46.3056 22.4132 47.004C22.6506 47.7025 22.3015 48.4752 21.6451 48.7278C20.4162 49.1588 19.0896 49.4114 17.8049 49.4114Z" fill="white"/>
<path d="M21.296 70.989C20.6676 70.989 20.123 70.4986 20.0392 69.815C19.2292 63.0237 17.7211 55.8164 15.5566 48.3861C15.3471 47.6728 15.7241 46.9297 16.3944 46.7068C17.0647 46.4839 17.763 46.8851 17.9724 47.5985C20.1788 55.1773 21.7149 62.5333 22.5528 69.4732C22.6366 70.2014 22.1478 70.885 21.4636 70.9741C21.3938 70.9741 21.3379 70.989 21.296 70.989Z" fill="white"/>
<path d="M60.327 70.989C60.2711 70.989 60.2153 70.989 60.1594 70.9741C59.4612 70.885 58.9864 70.2014 59.0702 69.4732C59.9081 62.5333 61.4442 55.1773 63.6506 47.5985C63.86 46.8851 64.5582 46.4839 65.2285 46.7068C65.8988 46.9297 66.2619 47.6728 66.0664 48.3861C63.9019 55.8164 62.3937 63.0237 61.5838 69.815C61.5 70.4837 60.9554 70.989 60.327 70.989Z" fill="white"/>
<path d="M29.5211 77.5425H25.7367C25.0385 77.5425 24.4799 76.9481 24.4799 76.2051C24.4799 75.462 25.0385 74.8676 25.7367 74.8676H29.5211C30.2194 74.8676 30.7779 75.462 30.7779 76.2051C30.7779 76.9332 30.2054 77.5425 29.5211 77.5425ZM60.9973 77.5425H33.892C33.1938 77.5425 32.6352 76.9481 32.6352 76.2051C32.6352 75.462 33.1938 74.8676 33.892 74.8676H60.9973C61.6955 74.8676 62.2541 75.462 62.2541 76.2051C62.2541 76.9332 61.6955 77.5425 60.9973 77.5425Z" fill="white"/>
<path d="M23.9493 71.3753C23.3348 71.3753 22.8042 70.8998 22.7064 70.2311C22.6087 69.5029 23.0835 68.8193 23.7677 68.7004C36.7408 66.62 49.9373 66.62 62.9803 68.7004C63.6645 68.8045 64.1393 69.488 64.0416 70.2311C63.9299 70.9741 63.2735 71.4496 62.6032 71.3605C49.8117 69.3246 36.8665 69.3246 24.1448 71.3605C24.0749 71.3753 24.0051 71.3753 23.9493 71.3753Z" fill="white"/>
<path d="M20.6257 77.5425C20.2486 77.5425 19.8576 77.3642 19.6202 77.0075C18.3494 75.2094 17.6652 72.8763 17.5814 70.0825C17.5535 69.3395 18.112 68.7153 18.7963 68.7005C19.4806 68.5965 20.081 69.2503 20.095 69.9933C20.1648 72.2224 20.6815 74.0503 21.6311 75.3877C22.0501 75.9822 21.9383 76.8292 21.3798 77.275C21.1563 77.4534 20.891 77.5425 20.6257 77.5425Z" fill="white"/>
<path d="M60.9973 77.5425C60.7459 77.5425 60.4945 77.4682 60.2711 77.3047C59.6986 76.8738 59.5589 76.0416 59.9639 75.4323C60.8716 74.0651 61.3883 72.2224 61.5279 69.9636C61.5698 69.2206 62.1144 68.6856 62.8685 68.7004C63.5667 68.745 64.0974 69.384 64.0415 70.1271C63.8739 72.8911 63.2036 75.1945 62.0306 76.9778C61.7932 77.3344 61.3883 77.5425 60.9973 77.5425Z" fill="white"/>
<path d="M55.3556 47.5984C55.2299 47.5984 55.0903 47.5836 54.9646 47.539C47.3818 44.9235 39.3383 44.9235 31.6857 47.539C31.0293 47.7619 30.3171 47.3755 30.0937 46.6622C29.8842 45.9489 30.2473 45.2059 30.9176 44.9681C39.0729 42.1892 47.6751 42.1892 55.7466 44.9681C56.403 45.191 56.766 45.9489 56.5566 46.6622C56.389 47.2269 55.8863 47.5984 55.3556 47.5984Z" fill="white"/>
</svg>
