<?xml version="1.0" encoding="utf-8"?>
<!-- Generator: Adobe Illustrator 25.0.0, SVG Export Plug-In . SVG Version: 6.00 Build 0)  -->
<svg version="1.1" id="Camada_1" xmlns="http://www.w3.org/2000/svg" xmlns:xlink="http://www.w3.org/1999/xlink" x="0px" y="0px"
	 viewBox="0 0 82 89" style="enable-background:new 0 0 82 89;" xml:space="preserve">
<style type="text/css">
	.st0{fill-rule:evenodd;clip-rule:evenodd;fill:#FFFFFF;}
</style>
<path class="st0" d="M67.8,18.5V44l-2.8,2V18.5c0-1.8-1.5-3.3-3.3-3.3H29v58.9h32.7c1.8,0,3.3-1.5,3.3-3.3V58.9l2.8-2v13.9
	c0,3.4-2.7,6.1-6.1,6.1H23c-3.4,0-6.1-2.7-6.1-6.1v-2.7h-2.8c-0.8,0-1.4-0.6-1.4-1.4c0-0.8,0.6-1.4,1.4-1.4h2.8v-8.3h-2.8
	c-0.8,0-1.4-0.6-1.4-1.4c0-0.8,0.6-1.4,1.4-1.4h2.8v-8.3h-2.8c-0.8,0-1.4-0.6-1.4-1.4c0-0.8,0.6-1.4,1.4-1.4h2.8V35h-2.8
	c-0.8,0-1.4-0.6-1.4-1.4c0-0.8,0.6-1.4,1.4-1.4h2.8V24h-2.8c-0.8,0-1.4-0.6-1.4-1.4c0-0.8,0.6-1.4,1.4-1.4h2.8v-2.7
	c0-3.4,2.7-6.1,6.1-6.1h38.6C65,12.4,67.8,15.1,67.8,18.5L67.8,18.5L67.8,18.5z M32.7,26.8c-1.1-1.1,0.6-2.8,1.7-1.7l1.6,1.6
	l2.5-2.5c1.1-1.1,2.8,0.6,1.7,1.7C35.3,30.6,36.5,30.6,32.7,26.8L32.7,26.8L32.7,26.8z M32.7,37.2c-1.1-1.1,0.6-2.8,1.7-1.7l1.6,1.6
	l2.5-2.5c1.1-1.1,2.8,0.6,1.7,1.7C35.3,41,36.5,41,32.7,37.2L32.7,37.2L32.7,37.2z M32.7,47.5c-1.1-1.1,0.6-2.8,1.7-1.7l1.6,1.6
	l2.5-2.5c1.1-1.1,2.8,0.6,1.7,1.7C35.3,51.4,36.5,51.4,32.7,47.5L32.7,47.5L32.7,47.5z M43.4,48.8c-0.8,0-1.4-0.6-1.4-1.4
	c0-0.8,0.6-1.4,1.4-1.4h16.4c0.8,0,1.4,0.6,1.4,1.4c0,0.8-0.6,1.4-1.4,1.4H43.4L43.4,48.8L43.4,48.8z M43.4,38.4
	c-0.8,0-1.4-0.6-1.4-1.4c0-0.8,0.6-1.4,1.4-1.4h16.4c0.8,0,1.4,0.6,1.4,1.4c0,0.8-0.6,1.4-1.4,1.4H43.4L43.4,38.4L43.4,38.4z
	 M42.9,64.8l-2.6,4.4c-0.1,0.2-0.1,0.4,0.1,0.6c0.1,0.2,0.4,0.3,0.6,0.3l5-1C45.9,67.5,44.5,65.4,42.9,64.8L42.9,64.8L42.9,64.8z
	 M44.6,62c2.3-1.6,4.5-3.2,6.8-4.8c2.3-1.6,4.5-3.2,6.8-4.8c4.5-3.2,5.9-4.2,10.4-7.4c0.7,0.3,1.4,0.6,2.1,0.9
	c0.8,1.1,1.5,2.2,2.3,3.2c0.1,0.8,0.1,1.6,0.2,2.4c-4.5,3.2-5.9,4.2-10.4,7.4c-2.3,1.6-4.5,3.2-6.8,4.8c-2.3,1.6-4.5,3.2-6.8,4.8
	c0.6-1.1,0.7-1.9-0.2-2.4c0.1-1.8-0.9-2.7-2.3-3.2C46.4,62,45.9,61.6,44.6,62L44.6,62L44.6,62z M43.4,28.1c-0.8,0-1.4-0.6-1.4-1.4
	c0-0.8,0.6-1.4,1.4-1.4h16.4c0.8,0,1.4,0.6,1.4,1.4c0,0.8-0.6,1.4-1.4,1.4H43.4L43.4,28.1L43.4,28.1z M27.6,15.2H23
	c-1.8,0-3.3,1.5-3.3,3.3v2.7h1.4c0.4-0.5,1-0.8,1.7-0.8c1.2,0,2.2,1,2.2,2.2c0,1.2-1,2.2-2.2,2.2c-0.7,0-1.3-0.3-1.7-0.8h-1.4v8.3
	h1.4c0.4-0.5,1-0.8,1.7-0.8c1.2,0,2.2,1,2.2,2.2c0,1.2-1,2.2-2.2,2.2c-0.7,0-1.3-0.3-1.7-0.8h-1.4v8.3h1.4c0.4-0.5,1-0.8,1.7-0.8
	c1.2,0,2.2,1,2.2,2.2c0,1.2-1,2.2-2.2,2.2c-0.7,0-1.3-0.3-1.7-0.8h-1.4v8.3h1.4c0.4-0.5,1-0.8,1.7-0.8c1.2,0,2.2,1,2.2,2.2
	c0,1.2-1,2.2-2.2,2.2c-0.7,0-1.3-0.3-1.7-0.8h-1.4v8.3h1.4c0.4-0.5,1-0.8,1.7-0.8c1.2,0,2.2,1,2.2,2.2c0,1.2-1,2.2-2.2,2.2
	c-0.7,0-1.3-0.3-1.7-0.8h-1.4v2.7c0,1.8,1.5,3.3,3.3,3.3h4.6V15.2L27.6,15.2L27.6,15.2z"/>
</svg>
