<svg width="45" height="63" viewBox="0 0 45 63" fill="none" xmlns="http://www.w3.org/2000/svg">
<path fill-rule="evenodd" clip-rule="evenodd" d="M14.9909 42.931C26.3611 47.2145 39.0509 41.4696 43.3344 30.0994C47.6179 18.7293 41.873 6.03946 30.5028 1.75596C19.1327 -2.52754 6.44288 3.21734 2.15938 14.5875C-1.70418 24.843 2.59075 36.1721 11.8132 41.438L4.31222 61.3488L7.5875 62.5827L14.9909 42.931ZM17.1062 37.3162C25.3754 40.4315 34.6043 36.2534 37.7196 27.9842C40.8349 19.7149 36.6568 10.486 28.3876 7.37073C20.1184 4.25546 10.8894 8.43355 7.77416 16.7028C4.65888 24.972 8.83697 34.2009 17.1062 37.3162Z" fill="#171616"/>
</svg>
